<svg viewBox="0 0 800 600" xmlns="http://www.w3.org/2000/svg" preserveAspectRatio="xMidYMid slice">
 <defs>
  <linearGradient id="sky" x1="0" y1="0" x2="0" y2="1"><stop offset="0" stop-color="#ffd9a0"/><stop offset="1" stop-color="#ff9e7a"/></linearGradient>
  <radialGradient id="sun" cx="0.5" cy="0.42" r="0.42"><stop offset="0" stop-color="#ffe9c2" stop-opacity="0.98"/><stop offset="1" stop-color="#ffe9c2" stop-opacity="0"/></radialGradient>
 </defs>
 <rect width="800" height="600" fill="url(#sky)"/>
 <circle cx="400" cy="250" r="70" fill="#ffe9c2" opacity="0.9"/>
 <rect width="800" height="600" fill="url(#sun)"/>
 <path d="M0 400 Q200 366 400 400 T800 398 V600 H0 Z" fill="#f2748c" opacity="0.5"/>
 <path d="M0 452 Q220 420 420 456 T800 450 V600 H0 Z" fill="#8a5a9e" opacity="0.78"/>
 <path d="M0 508 Q210 486 410 514 T800 508 V600 H0 Z" fill="#5b6aa8"/>
 <g opacity="0.5" fill="#ffffff">
   <path d="M0 470 q60 -8 120 0 t120 0 t120 0 t120 0 t120 0 t120 0 V478 q-60 8 -120 0 t-120 0 t-120 0 t-120 0 t-120 0 t-120 0 Z"/>
 </g>
</svg>
